<svg width="405" height="327" viewBox="0 0 405 327" fill="none" xmlns="http://www.w3.org/2000/svg">
<path d="M9.24422 260.552H376.814" stroke="#263238" stroke-miterlimit="10"/>
<path d="M9.24422 196.11H376.814" stroke="#263238" stroke-miterlimit="10"/>
<path d="M9.24422 131.667H376.814" stroke="#263238" stroke-miterlimit="10"/>
<path d="M9.24422 67.2251H376.814" stroke="#263238" stroke-miterlimit="10"/>
<path d="M92.8172 30.6343V260.704" stroke="#263238" stroke-miterlimit="10"/>
<path d="M313.751 30.6343V260.704" stroke="#263238" stroke-miterlimit="10"/>
<path d="M101.025 115.918L98.289 118.587" stroke="#263238" stroke-miterlimit="10"/>
<path d="M147.617 70.4175L104.317 112.701" stroke="#263238" stroke-miterlimit="10"/>
<path d="M150.317 77.2998L125.995 100.447" stroke="#263238" stroke-miterlimit="10"/>
<path d="M323.208 115.918L320.472 118.587" stroke="#263238" stroke-miterlimit="10"/>
<path d="M369.792 70.4175L326.5 112.701" stroke="#263238" stroke-miterlimit="10"/>
<path d="M372.5 77.2998L348.178 100.447" stroke="#263238" stroke-miterlimit="10"/>
<path d="M3.73591 246.052L1 248.721" stroke="#263238" stroke-miterlimit="10"/>
<path d="M50.3194 200.543L7.02812 242.835" stroke="#263238" stroke-miterlimit="10"/>
<path d="M53.0279 207.426L28.6965 230.581" stroke="#263238" stroke-miterlimit="10"/>
<path d="M39.5399 60.8662L36.8131 63.5348" stroke="#263238" stroke-miterlimit="10"/>
<path d="M86.1324 15.3574L42.8412 57.6405" stroke="#263238" stroke-miterlimit="10"/>
<path d="M88.8319 22.2397L64.5096 45.3869" stroke="#263238" stroke-miterlimit="10"/>
<path d="M241.997 60.8662L239.271 63.5348" stroke="#263238" stroke-miterlimit="10"/>
<path d="M288.59 15.3574L245.299 57.6405" stroke="#263238" stroke-miterlimit="10"/>
<path d="M291.289 22.2397L266.967 45.3869" stroke="#263238" stroke-miterlimit="10"/>
<path d="M179.4 182.86L176.664 185.528" stroke="#263238" stroke-miterlimit="10"/>
<path d="M225.983 137.359L182.692 179.642" stroke="#263238" stroke-miterlimit="10"/>
<path d="M228.692 144.242L204.369 167.389" stroke="#263238" stroke-miterlimit="10"/>
<path d="M366.062 308.172C366.062 308.172 343.481 263.618 348.388 262.334C353.294 261.05 363.581 268.144 363.581 268.144C363.581 268.144 333.395 193.239 341.211 187.429C349.026 181.619 363.618 211.353 363.618 211.353C363.618 211.353 348.032 165.472 349.865 148.017C351.698 130.561 371.497 147.375 371.497 147.375C371.497 147.375 355.638 84.74 370.366 81.5056C385.095 78.2713 384.602 153.177 384.602 153.177C384.602 153.177 389.436 99.5775 395.336 114.432C401.236 129.286 388.834 179.001 388.834 179.001C388.834 179.001 396.923 162.213 401.419 177.709C405.915 193.205 392.482 255.84 392.482 255.84C392.482 255.84 403.899 245.512 404.966 258.424C406.033 271.336 381.328 311.373 381.328 311.373L367.348 312.69L366.062 308.172Z" fill="#1A3479"/>
<path opacity="0.6" d="M366.062 308.172C366.062 308.172 343.481 263.618 348.388 262.334C353.294 261.05 363.581 268.144 363.581 268.144C363.581 268.144 333.395 193.239 341.211 187.429C349.026 181.619 363.618 211.353 363.618 211.353C363.618 211.353 348.032 165.472 349.865 148.017C351.698 130.561 371.497 147.375 371.497 147.375C371.497 147.375 355.638 84.74 370.366 81.5056C385.095 78.2713 384.602 153.177 384.602 153.177C384.602 153.177 389.436 99.5775 395.336 114.432C401.236 129.286 388.834 179.001 388.834 179.001C388.834 179.001 396.923 162.213 401.419 177.709C405.915 193.205 392.482 255.84 392.482 255.84C392.482 255.84 403.899 245.512 404.966 258.424C406.033 271.336 381.328 311.373 381.328 311.373L367.348 312.69L366.062 308.172Z" fill="white"/>
<path d="M370.886 310.157C370.886 310.157 352.063 279.164 355.547 273.346C359.03 267.527 369.491 281.098 369.491 281.098C369.491 281.098 345.78 226.207 349.272 221.047C352.765 215.888 363.919 238.486 363.919 238.486C363.919 238.486 359.733 162.939 366.7 165.514C373.668 168.09 374.342 204.217 374.342 204.217C374.342 204.217 370.166 118.342 376.44 120.926C382.714 123.51 382.021 219.071 382.021 219.071C382.021 219.071 394.57 182.26 396.658 199.049C398.747 215.837 380.626 261.042 380.626 261.042C380.626 261.042 398.054 225.523 400.179 244.287C402.303 263.052 386.198 297.844 386.198 297.844C386.198 297.844 392.472 283.64 392.472 291.384C392.472 299.128 387.593 308.823 387.593 308.823" stroke="#263238" stroke-linecap="round" stroke-linejoin="round"/>
<path d="M319.095 214.088L344.494 265.416L328.516 269.588L309.675 247.868L319.095 214.088Z" fill="#1A3479"/>
<mask id="mask0_261_540" style="mask-type:luminance" maskUnits="userSpaceOnUse" x="309" y="214" width="36" height="56">
<path d="M319.095 214.088L344.494 265.416L328.516 269.588L309.675 247.868L319.095 214.088Z" fill="white"/>
</mask>
<g mask="url(#mask0_261_540)">
<g opacity="0.1">
<path d="M314.508 230.522L313.432 234.398L334.526 268.017L337.554 267.231L314.508 230.522Z" fill="black"/>
<path d="M328.634 269.563L331.68 268.769L312.055 239.322L311.006 243.097L328.634 269.563Z" fill="black"/>
<path d="M317.116 221.174L316.004 225.177L340.226 266.531L343.217 265.745L317.116 221.174Z" fill="black"/>
</g>
</g>
<path d="M319.095 214.088L344.494 265.416L328.516 269.588L309.675 247.868L319.095 214.088Z" stroke="#263238" stroke-linecap="round" stroke-linejoin="round"/>
<path d="M268.581 199.792L235.504 213.903L253.142 280.17L247.524 308.046H310.277L304.066 277.754L319.296 214.089L284.614 200.907L268.581 199.792Z" fill="#1A3479"/>
<mask id="mask1_261_540" style="mask-type:luminance" maskUnits="userSpaceOnUse" x="235" y="199" width="85" height="110">
<path d="M268.581 199.792L235.504 213.903L253.142 280.17L247.524 308.046H310.277L304.066 277.754L319.296 214.089L284.614 200.907L268.581 199.792Z" fill="white"/>
</mask>
<g mask="url(#mask1_261_540)">
<g opacity="0.1">
<path d="M268.882 308.046L270.15 281.648C270.163 281.524 270.163 281.4 270.15 281.276L257.154 204.673L253.324 206.303L266.092 281.673L264.824 308.046H268.882Z" fill="black"/>
<path d="M276.488 275.331C276.488 275.331 276.488 275.263 276.488 275.23L266.183 200.814L262.325 202.503L272.448 275.694L275.056 308.088H279.124L276.488 275.331Z" fill="black"/>
<path d="M257.41 308.046L261.057 282.281C261.089 282.09 261.089 281.897 261.057 281.706L247.15 208.955L243.347 210.576L257.027 282.078L253.379 308.046H257.41Z" fill="black"/>
<path d="M317.855 213.54L314.034 212.088L300.09 278.861C300.049 279.079 300.049 279.302 300.09 279.52L305.106 308.046H309.219L304.121 279.249L304.239 278.7L304.039 277.755L307.094 265.011L317.855 213.54Z" fill="black"/>
<path d="M281.303 207.376L277.254 207.486L280.619 308.046H284.668L281.303 207.376Z" fill="black"/>
<path d="M295.521 278.76L308.991 210.171L305.16 208.71L291.481 278.413C291.435 278.628 291.435 278.849 291.481 279.064L296.825 308.046H300.938L295.521 278.76Z" fill="black"/>
<path d="M288.161 276.429L298.403 206.143L294.527 204.673L284.112 276.159C284.09 276.31 284.09 276.463 284.112 276.615L287.888 308.046H291.964L288.161 276.429Z" fill="black"/>
</g>
</g>
<path d="M268.581 199.792L235.504 213.903L253.142 280.17L247.524 308.046H310.277L304.066 277.754L319.296 214.089L284.614 200.907L268.581 199.792Z" stroke="#263238" stroke-linecap="round" stroke-linejoin="round"/>
<path d="M235.504 213.903L209.449 266.151L226.083 269.402L244.925 247.682L235.504 213.903Z" fill="#1A3479"/>
<mask id="mask2_261_540" style="mask-type:luminance" maskUnits="userSpaceOnUse" x="209" y="213" width="36" height="57">
<path d="M235.504 213.903L209.449 266.151L226.083 269.402L244.925 247.682L235.504 213.903Z" fill="white"/>
</mask>
<g mask="url(#mask2_261_540)">
<g opacity="0.1">
<path d="M242.353 238.46L224.205 269.039L226.083 269.402L230.424 264.394L243.456 242.438L242.353 238.46Z" fill="black"/>
<path d="M240.721 232.617L239.535 228.36L219.28 268.076L222.335 268.676L240.721 232.617Z" fill="black"/>
<path d="M212.668 266.776L215.723 267.375L238.131 223.319L236.936 219.046L212.668 266.776Z" fill="black"/>
</g>
<path d="M234.82 222.601L244.013 245.444L234.784 232.363" stroke="#263238" stroke-miterlimit="10"/>
</g>
<path d="M235.504 213.903L209.449 266.151L226.083 269.402L244.925 247.682L235.504 213.903Z" stroke="#263238" stroke-linecap="round" stroke-linejoin="round"/>
<path d="M227.278 261.608L260.155 296.324L253.771 303.004L212.34 272.451C212.34 272.451 206.658 269.918 210.069 264.766" fill="#1A3479"/>
<mask id="mask3_261_540" style="mask-type:luminance" maskUnits="userSpaceOnUse" x="208" y="261" width="53" height="43">
<path d="M227.278 261.608L260.155 296.324L253.771 303.004L212.34 272.451C212.34 272.451 206.658 269.918 210.069 264.766" fill="white"/>
</mask>
<g mask="url(#mask3_261_540)">
<g opacity="0.1">
<path d="M256.707 298.74L259.79 296.299L243.21 278.43L227.278 261.608L222.992 262.393L256.707 298.74Z" fill="black"/>
<path d="M250.141 300.344L252.886 302.371L255.467 300.268L220.01 262.942L215.413 263.778L250.141 300.344Z" fill="black"/>
</g>
</g>
<path d="M227.278 261.608L260.155 296.324L253.771 303.004L212.34 272.451C212.34 272.451 206.658 269.918 210.069 264.766" stroke="#263238" stroke-linecap="round" stroke-linejoin="round"/>
<path d="M254.874 295.015C255.786 294.542 271.645 291.029 271.864 292.828C272.083 294.627 276.807 296.611 278.959 296.611C281.112 296.611 283.264 295.015 283.693 297.405C284.121 299.795 281.759 299.998 279.826 300.192C277.892 300.386 271.217 298.402 271.217 298.402C271.217 298.402 264.979 303.181 262.398 304.372C259.817 305.563 255.102 305.216 253.37 303.975C251.637 302.734 249.293 297.802 254.874 295.015Z" fill="white" stroke="#263238" stroke-linecap="round" stroke-linejoin="round"/>
<path d="M269.511 292.625C269.511 292.625 275.53 291.029 276.807 291.629C278.084 292.228 278.75 304.178 278.75 304.178C278.75 304.178 278.102 305.369 276.807 304.178C275.512 302.987 271.217 294.044 271.217 294.044" fill="white"/>
<path d="M269.511 292.625C269.511 292.625 275.53 291.029 276.807 291.629C278.084 292.228 278.75 304.178 278.75 304.178C278.75 304.178 278.102 305.369 276.807 304.178C275.512 302.987 271.217 294.044 271.217 294.044" stroke="#263238" stroke-linecap="round" stroke-linejoin="round"/>
<path d="M266.493 293.022C266.493 293.022 272.731 291.629 274.026 293.816C275.321 296.003 278.54 305.766 275.959 306.171C273.378 306.576 272.521 303.376 272.521 303.376L268.435 296.409L265.636 296.012" fill="white"/>
<path d="M266.493 293.022C266.493 293.022 272.731 291.629 274.026 293.816C275.321 296.003 278.54 305.766 275.959 306.171C273.378 306.576 272.521 303.376 272.521 303.376L268.435 296.409L265.636 296.012" stroke="#263238" stroke-linecap="round" stroke-linejoin="round"/>
<path d="M264.35 294.813C264.35 294.813 267.359 293.622 268.864 294.618C270.369 295.615 277.254 305.765 275.959 306.171C274.664 306.576 271.655 306.365 271.226 305.571C270.797 304.777 265.207 297.971 265.207 297.971" fill="white"/>
<path d="M264.35 294.813C264.35 294.813 267.359 293.622 268.864 294.618C270.369 295.615 277.254 305.765 275.959 306.171C274.664 306.576 271.655 306.365 271.226 305.571C270.797 304.777 265.207 297.971 265.207 297.971" stroke="#263238" stroke-linecap="round" stroke-linejoin="round"/>
<path d="M262.17 298.199C262.17 298.199 264.961 295.809 266.465 296.611C267.97 297.414 274.208 304.972 272.922 305.766C271.636 306.559 270.77 305.766 269.484 304.178C268.562 303.107 267.474 302.168 266.256 301.391L263.675 302.185" fill="white"/>
<path d="M262.17 298.199C262.17 298.199 264.961 295.809 266.465 296.611C267.97 297.414 274.208 304.972 272.922 305.766C271.636 306.559 270.77 305.766 269.484 304.178C268.562 303.107 267.474 302.168 266.256 301.391L263.675 302.185" stroke="#263238" stroke-linecap="round" stroke-linejoin="round"/>
<path d="M325.716 262.722L314.773 297.202L322.688 302.32L340.572 275.702C340.572 275.702 347.923 268.017 343.308 263.693" fill="#1A3479"/>
<mask id="mask4_261_540" style="mask-type:luminance" maskUnits="userSpaceOnUse" x="314" y="262" width="31" height="41">
<path d="M325.716 262.722L314.773 297.202L322.688 302.319L340.572 275.701C340.572 275.701 347.923 268.017 343.308 263.693" fill="white"/>
</mask>
<g mask="url(#mask4_261_540)">
<g opacity="0.1">
<path d="M322.935 301.905L323.071 301.694L338.219 263.414L333.988 263.177L319.351 300.182L320.992 301.238L322.935 301.905Z" fill="black"/>
<path d="M314.791 297.227L318.229 299.457L332.364 263.195L331.972 263.068L328.188 262.857L314.791 297.227Z" fill="black"/>
<path d="M344.557 265.711C344.315 264.948 343.87 264.254 343.262 263.692L341.092 263.574L329.656 291.94L340.527 275.743L344.557 265.711Z" fill="black"/>
</g>
</g>
<path d="M325.716 262.722L314.773 297.202L322.688 302.32L340.572 275.702C340.572 275.702 347.923 268.017 343.308 263.693" stroke="#263238" stroke-linecap="round" stroke-linejoin="round"/>
<path d="M320.281 295.015C319.369 294.542 303.501 291.029 303.291 292.828C303.081 294.627 298.339 296.611 296.196 296.611C294.053 296.611 291.891 295.015 291.463 297.405C291.034 299.795 293.396 299.998 295.329 300.192C297.263 300.386 303.938 298.402 303.938 298.402C303.938 298.402 310.176 303.181 312.757 304.372C315.338 305.563 320.053 305.216 321.786 303.975C323.518 302.734 325.871 297.802 320.281 295.015Z" fill="white" stroke="#263238" stroke-linecap="round" stroke-linejoin="round"/>
<path d="M305.653 292.625C305.653 292.625 299.634 291.029 298.357 291.629C297.08 292.228 296.424 304.178 296.424 304.178C296.424 304.178 297.071 305.369 298.357 304.178C299.643 302.987 303.957 294.044 303.957 294.044" fill="white"/>
<path d="M305.653 292.625C305.653 292.625 299.634 291.029 298.357 291.629C297.08 292.228 296.424 304.178 296.424 304.178C296.424 304.178 297.071 305.369 298.357 304.178C299.643 302.987 303.957 294.044 303.957 294.044" stroke="#263238" stroke-linecap="round" stroke-linejoin="round"/>
<path d="M308.681 293.022C308.681 293.022 302.452 291.629 301.157 293.816C299.862 296.003 296.597 305.766 299.223 306.171C301.85 306.576 302.662 303.376 302.662 303.376L306.747 296.409L309.547 296.012" fill="white"/>
<path d="M308.681 293.022C308.681 293.022 302.452 291.629 301.157 293.816C299.862 296.003 296.597 305.766 299.223 306.171C301.85 306.576 302.662 303.376 302.662 303.376L306.747 296.409L309.547 296.012" stroke="#263238" stroke-linecap="round" stroke-linejoin="round"/>
<path d="M310.815 294.813C310.815 294.813 307.805 293.622 306.3 294.618C304.796 295.615 297.91 305.765 299.205 306.171C300.5 306.576 303.501 306.365 303.938 305.571C304.376 304.777 309.957 297.971 309.957 297.971" fill="white"/>
<path d="M310.815 294.813C310.815 294.813 307.805 293.622 306.3 294.618C304.796 295.615 297.91 305.765 299.205 306.171C300.5 306.576 303.501 306.365 303.938 305.571C304.376 304.777 309.957 297.971 309.957 297.971" stroke="#263238" stroke-linecap="round" stroke-linejoin="round"/>
<path d="M312.967 298.199C312.967 298.199 310.176 295.801 308.681 296.645C307.185 297.489 300.938 305.005 302.233 305.799C303.528 306.593 304.385 305.799 305.671 304.212C306.593 303.141 307.681 302.202 308.899 301.425L311.48 302.219" fill="white"/>
<path d="M312.967 298.199C312.967 298.199 310.176 295.801 308.681 296.645C307.185 297.489 300.938 305.005 302.233 305.799C303.528 306.593 304.385 305.799 305.671 304.212C306.593 303.141 307.681 302.202 308.899 301.425L311.48 302.219" stroke="#263238" stroke-linecap="round" stroke-linejoin="round"/>
<path d="M270.98 196.262C270.98 196.262 265.772 197.748 263.565 200.72C261.358 203.693 263.967 226.705 263.967 226.705L280.61 218.167L298.047 228.377C298.047 228.377 296.442 204.808 295.038 201.464C293.633 198.119 284.814 194.226 281.805 194.598C278.795 194.97 270.98 196.262 270.98 196.262Z" fill="#1A3479" stroke="#263238" stroke-linecap="round" stroke-linejoin="round"/>
<path d="M268.581 183.46V204.808L279.607 232.279L289.028 204.251V183.274L268.581 183.46Z" fill="white" stroke="#263238" stroke-linecap="round" stroke-linejoin="round"/>
<path d="M268.554 191.128C271.666 193.15 275.377 194.232 279.178 194.227C282.653 194.23 286.058 193.322 289 191.609V183.274L268.554 183.485V191.128Z" fill="#263238" stroke="#263238" stroke-linecap="round" stroke-linejoin="round"/>
<path d="M279.206 189.396C274.28 189.396 269.557 187.585 266.073 184.361C262.59 181.136 260.631 176.763 260.629 172.202L257.355 148.017C257.355 142.641 259.661 137.486 263.766 133.685C267.87 129.884 273.437 127.749 279.242 127.749C285.047 127.749 290.614 129.884 294.719 133.685C298.823 137.486 301.129 142.641 301.129 148.017L297.737 172.169C297.742 174.427 297.266 176.663 296.338 178.751C295.409 180.839 294.045 182.737 292.324 184.336C290.604 185.936 288.559 187.206 286.308 188.074C284.058 188.942 281.644 189.392 279.206 189.396Z" fill="white" stroke="#263238" stroke-linecap="round" stroke-linejoin="round"/>
<path d="M283.975 165.582C283.975 165.582 288.708 161.908 294.363 165.869" stroke="#263238" stroke-linecap="round" stroke-linejoin="round"/>
<path d="M275.421 165.16C274.015 164.331 272.342 163.982 270.688 164.172" stroke="#263238" stroke-linecap="round" stroke-linejoin="round"/>
<path d="M285.808 156.816C285.808 156.816 290.852 154.553 293.907 158.936" stroke="#263238" stroke-linecap="round" stroke-linejoin="round"/>
<path d="M277.674 175.344C277.674 175.344 279.817 176.898 281.65 175.344" stroke="#263238" stroke-linecap="round" stroke-linejoin="round"/>
<path d="M275.576 178.739C275.576 178.739 280.008 181.273 282.598 178.739" stroke="#263238" stroke-linecap="round" stroke-linejoin="round"/>
<path d="M288.544 145.483C288.544 145.483 270.232 161.14 265.125 172.549C260.018 183.958 264.596 195.874 267.414 199.302C270.232 202.731 271.974 203.212 271.974 203.212C271.974 203.212 262.289 206.641 255.95 197.672C249.612 188.704 251.19 178.587 253.132 171.578C255.075 164.569 254.537 144.014 258.942 137.165C263.347 130.317 269.685 125.258 280.254 126.398C290.824 127.538 296.451 132.597 299.798 138.956C303.145 145.315 301.558 156.082 302.616 160.811C303.674 165.54 308.252 179.727 309.31 188.206C310.368 196.684 297.883 202.722 295.913 203.541C294.574 204.063 293.142 204.349 291.691 204.386C291.691 204.386 295.913 184.819 296.798 173.562C297.682 162.305 297.737 155.617 297.737 155.617C297.737 155.617 289.429 145.973 288.544 145.483Z" fill="#263238"/>
<mask id="mask5_261_540" style="mask-type:luminance" maskUnits="userSpaceOnUse" x="251" y="126" width="59" height="79">
<path d="M288.544 145.483C288.544 145.483 270.232 161.14 265.125 172.549C260.018 183.958 264.596 195.874 267.414 199.302C270.232 202.731 271.974 203.212 271.974 203.212C271.974 203.212 262.289 206.641 255.95 197.672C249.612 188.704 251.19 178.587 253.132 171.578C255.075 164.569 254.537 144.014 258.942 137.165C263.347 130.317 269.685 125.258 280.254 126.398C290.824 127.538 296.451 132.597 299.798 138.956C303.145 145.315 301.558 156.082 302.616 160.811C303.674 165.54 308.252 179.727 309.31 188.206C310.368 196.684 297.883 202.722 295.913 203.541C294.574 204.063 293.142 204.349 291.691 204.386C291.691 204.386 295.913 184.819 296.798 173.562C297.682 162.305 297.737 155.617 297.737 155.617C297.737 155.617 289.429 145.973 288.544 145.483Z" fill="white"/>
</mask>
<g mask="url(#mask5_261_540)">
<path d="M286.401 134.505C286.401 134.505 284.24 140.02 268.691 155.82C253.142 171.62 248.919 186.694 253.643 201.422" stroke="#707070" stroke-miterlimit="10"/>
<path d="M282.562 128.999C282.562 128.999 274.007 135.561 263.41 145.39C256.897 151.475 251.335 158.374 246.885 165.886" stroke="#707070" stroke-miterlimit="10"/>
<path d="M290.231 135.831C290.231 135.831 296.725 146.759 300.263 153.32C303.802 159.882 307.942 196.76 295.548 209.9" stroke="#707070" stroke-miterlimit="10"/>
<path d="M285.808 126.812L288.544 145.483" stroke="#707070" stroke-miterlimit="10"/>
</g>
<path d="M288.544 145.483C288.544 145.483 270.232 161.14 265.125 172.549C260.018 183.958 264.596 195.874 267.414 199.302C270.232 202.731 271.974 203.212 271.974 203.212C271.974 203.212 262.289 206.641 255.95 197.672C249.612 188.704 251.19 178.587 253.132 171.578C255.075 164.569 254.537 144.014 258.942 137.165C263.347 130.317 269.685 125.258 280.254 126.398C290.824 127.538 296.451 132.597 299.798 138.956C303.145 145.315 301.558 156.082 302.616 160.811C303.674 165.54 308.252 179.727 309.31 188.206C310.368 196.684 297.883 202.722 295.913 203.541C294.574 204.063 293.142 204.349 291.691 204.386C291.691 204.386 295.913 184.819 296.798 173.562C297.682 162.305 297.737 155.617 297.737 155.617C297.737 155.617 289.429 145.973 288.544 145.483Z" stroke="#263238" stroke-linecap="round" stroke-linejoin="round"/>
<path d="M255.549 156.411H252.85C251.359 156.411 250.15 157.53 250.15 158.911V168.918C250.15 170.298 251.359 171.418 252.85 171.418H255.549C257.04 171.418 258.249 170.298 258.249 168.918V158.911C258.249 157.53 257.04 156.411 255.549 156.411Z" fill="white" stroke="#263238" stroke-linecap="round" stroke-linejoin="round"/>
<path d="M305.042 156.411H302.342C300.852 156.411 299.643 157.53 299.643 158.911V168.918C299.643 170.298 300.852 171.418 302.342 171.418H305.042C306.533 171.418 307.741 170.298 307.741 168.918V158.911C307.741 157.53 306.533 156.411 305.042 156.411Z" fill="white" stroke="#263238" stroke-linecap="round" stroke-linejoin="round"/>
<path d="M304.394 156.411V148.253C304.394 141.939 301.686 135.884 296.864 131.42C292.043 126.955 285.504 124.447 278.686 124.447C271.867 124.447 265.327 126.955 260.504 131.419C255.681 135.884 252.971 141.939 252.968 148.253V156.411" stroke="#263238" stroke-width="2" stroke-linejoin="round"/>
<path d="M303.692 171.341C303.692 171.341 302.552 179.507 291.764 182.834" stroke="#263238" stroke-linecap="round" stroke-linejoin="round"/>
<path d="M291.353 182.48C291.809 183.704 290.523 185.224 288.471 185.858C286.419 186.491 284.404 186.06 283.911 184.836C283.419 183.611 284.741 182.091 286.784 181.458C288.827 180.824 290.925 181.255 291.353 182.48Z" stroke="#263238" stroke-linecap="round" stroke-linejoin="round"/>
<path d="M106.77 193.011L69.0877 209.639L79.9584 308.249H155.077L165.702 208L130.29 192.774L106.77 193.011Z" fill="#1A3479" stroke="#263238" stroke-linecap="round" stroke-linejoin="round"/>
<path d="M121.873 223.099C122.578 223.099 123.149 222.57 123.149 221.917C123.149 221.264 122.578 220.735 121.873 220.735C121.167 220.735 120.596 221.264 120.596 221.917C120.596 222.57 121.167 223.099 121.873 223.099Z" fill="#263238"/>
<path d="M123.149 229.011C123.149 229.245 123.074 229.473 122.934 229.668C122.794 229.862 122.594 230.014 122.361 230.103C122.128 230.193 121.871 230.216 121.623 230.17C121.376 230.125 121.148 230.012 120.97 229.847C120.791 229.682 120.67 229.471 120.62 229.242C120.571 229.012 120.596 228.774 120.693 228.558C120.79 228.342 120.953 228.158 121.163 228.028C121.373 227.898 121.62 227.829 121.873 227.829C122.211 227.829 122.536 227.953 122.775 228.175C123.015 228.397 123.149 228.697 123.149 229.011Z" fill="#263238"/>
<path d="M134.941 198.044L124.645 208.676L120.249 219.004L115.516 208.524L105.557 198.044V179.432H134.941V198.044Z" fill="white" stroke="#263238" stroke-linecap="round" stroke-linejoin="round"/>
<path d="M105.557 187.708C107.496 189.889 109.932 191.646 112.692 192.851C115.452 194.055 118.466 194.678 121.517 194.674C126.441 194.68 131.204 193.05 134.941 190.081V179.432H105.557V187.708Z" fill="#263238" stroke="#263238" stroke-linecap="round" stroke-linejoin="round"/>
<path d="M123.587 127.344H119.447C109.162 127.344 100.824 135.065 100.824 144.589V172.195C100.824 181.718 109.162 189.439 119.447 189.439H123.587C133.872 189.439 142.21 181.718 142.21 172.195V144.589C142.21 135.065 133.872 127.344 123.587 127.344Z" fill="white" stroke="#263238" stroke-linecap="round" stroke-linejoin="round"/>
<path d="M125.484 154.875L124.873 168.445C124.861 169.033 124.654 169.604 124.281 170.08C123.907 170.555 123.385 170.913 122.785 171.105C121.681 171.418 120.423 171.105 119.739 168.8" stroke="#263238" stroke-linecap="round" stroke-linejoin="round"/>
<path d="M113.519 173.799H129.934C129.934 173.799 127.062 179.592 121.49 179.592C115.917 179.592 113.519 173.799 113.519 173.799Z" fill="#263238" stroke="#263238" stroke-linecap="round" stroke-linejoin="round"/>
<path d="M114.686 175.834H128.512C129.037 175.198 129.495 174.516 129.88 173.799H113.519C113.83 174.513 114.222 175.195 114.686 175.834Z" fill="white" stroke="#263238" stroke-linecap="round" stroke-linejoin="round"/>
<path d="M113.327 160.98C113.982 160.98 114.513 159.823 114.513 158.396C114.513 156.968 113.982 155.812 113.327 155.812C112.673 155.812 112.142 156.968 112.142 158.396C112.142 159.823 112.673 160.98 113.327 160.98Z" fill="#263238"/>
<path d="M131.056 160.98C131.711 160.98 132.242 159.823 132.242 158.396C132.242 156.968 131.711 155.812 131.056 155.812C130.401 155.812 129.871 156.968 129.871 158.396C129.871 159.823 130.401 160.98 131.056 160.98Z" fill="#263238"/>
<path d="M127.344 151.59C127.344 151.59 131.394 149.242 135.962 153" stroke="#263238" stroke-linecap="round" stroke-linejoin="round"/>
<path d="M121.517 127.344C116.029 127.344 110.766 129.363 106.885 132.956C103.004 136.55 100.824 141.424 100.824 146.505V163.961H100.998H102.685V156.766C102.685 156.766 111.13 156.766 121.097 151.767C131.065 146.767 133.582 138.61 133.582 138.61C133.582 138.61 135.78 148.465 138.142 150.339L140.513 152.214V164.104H142.2V146.505C142.2 141.425 140.022 136.553 136.143 132.959C132.264 129.366 127.003 127.346 121.517 127.344Z" fill="#263238" stroke="#263238" stroke-linecap="round" stroke-linejoin="round"/>
<path d="M96.9484 154.722H100.824V168.952H96.9484C95.9616 168.952 95.0152 168.589 94.3174 167.942C93.6196 167.296 93.2276 166.42 93.2276 165.506V158.151C93.2324 157.24 93.6265 156.368 94.3238 155.725C95.0211 155.083 95.9647 154.722 96.9484 154.722Z" fill="white" stroke="#263238" stroke-linecap="round" stroke-linejoin="round"/>
<path d="M145.839 168.951H141.963V154.722H145.839C146.328 154.722 146.812 154.811 147.263 154.984C147.714 155.157 148.125 155.411 148.47 155.731C148.816 156.051 149.09 156.431 149.277 156.849C149.464 157.267 149.56 157.715 149.56 158.167V165.523C149.555 166.433 149.161 167.305 148.464 167.948C147.766 168.59 146.823 168.951 145.839 168.951Z" fill="white" stroke="#263238" stroke-linecap="round" stroke-linejoin="round"/>
<path d="M97.45 154.722V145.644C97.45 139.753 99.977 134.104 104.475 129.939C108.973 125.774 115.074 123.434 121.435 123.434C127.795 123.436 133.894 125.777 138.392 129.942C142.889 134.106 145.417 139.754 145.42 145.644V154.722" stroke="#263238" stroke-width="2" stroke-linejoin="round"/>
<path d="M145.438 168.951C145.438 168.951 144.252 177.396 133.108 180.841" stroke="#263238" stroke-linecap="round" stroke-linejoin="round"/>
<path d="M132.67 180.471C133.145 181.737 131.813 183.308 129.697 183.992C127.581 184.676 125.484 184.195 125.01 182.928C124.536 181.661 125.867 180.091 127.983 179.407C130.099 178.723 132.223 179.204 132.67 180.471Z" stroke="#263238" stroke-linecap="round" stroke-linejoin="round"/>
<path d="M69.0877 209.639L37.2143 272.088L50.365 282.711L74.14 255.08L69.0877 209.639Z" fill="#1A3479" stroke="#263238" stroke-linecap="round" stroke-linejoin="round"/>
<path d="M66.4704 228.783L74.213 252.969L65.0203 239.077" stroke="#263238" stroke-miterlimit="10"/>
<path d="M165.702 208L196.052 270.771L177.339 278.27L160.64 253.442L165.702 208Z" fill="#1A3479" stroke="#263238" stroke-linecap="round" stroke-linejoin="round"/>
<path d="M54.4141 270.534L81.7276 294.188L74.14 302.388L34.4328 279.579L38.9927 268.339" fill="#1A3479"/>
<path d="M54.4141 270.534L81.7276 294.188L74.14 302.388L34.4328 279.579L38.9927 268.339" stroke="#263238" stroke-linecap="round" stroke-linejoin="round"/>
<path d="M77.1769 292.786C78.2895 292.228 96.9028 288.099 97.1582 290.21C97.4135 292.321 102.977 294.661 105.503 294.661C108.029 294.661 110.564 292.786 111.066 295.598C111.567 298.41 108.795 298.638 106.506 298.874C104.217 299.111 96.3921 296.763 96.3921 296.763C96.3921 296.763 89.0963 302.388 86.023 303.798C82.9497 305.208 77.4231 304.727 75.3985 303.325C73.374 301.923 70.6016 296.062 77.1769 292.786Z" fill="white" stroke="#263238" stroke-linecap="round" stroke-linejoin="round"/>
<path d="M94.3675 289.974C94.3675 289.974 101.454 288.099 102.967 288.809C104.481 289.518 105.247 303.562 105.247 303.562C105.247 303.562 104.481 304.964 102.967 303.562C101.454 302.16 96.4012 291.579 96.4012 291.579" fill="white"/>
<path d="M94.3675 289.974C94.3675 289.974 101.454 288.099 102.967 288.809C104.481 289.518 105.247 303.562 105.247 303.562C105.247 303.562 104.481 304.964 102.967 303.562C101.454 302.16 96.4012 291.579 96.4012 291.579" stroke="#263238" stroke-linecap="round" stroke-linejoin="round"/>
<path d="M90.8382 290.447C90.8382 290.447 98.134 288.809 99.6843 291.385C101.235 293.96 105.001 305.437 101.964 305.901C98.9274 306.366 97.9151 302.625 97.9151 302.625L93.109 294.425L89.8259 293.96" fill="white"/>
<path d="M90.8382 290.447C90.8382 290.447 98.134 288.809 99.6843 291.385C101.235 293.96 105.001 305.437 101.964 305.901C98.9274 306.366 97.9151 302.625 97.9151 302.625L93.109 294.425L89.8259 293.96" stroke="#263238" stroke-linecap="round" stroke-linejoin="round"/>
<path d="M88.3029 292.55C88.3029 292.55 91.8505 291.148 93.6197 292.322C95.3889 293.495 103.487 305.436 101.964 305.935C100.441 306.433 96.9028 306.171 96.4012 305.234C95.8996 304.296 89.3152 296.333 89.3152 296.333" fill="white"/>
<path d="M88.3029 292.55C88.3029 292.55 91.8505 291.148 93.6197 292.322C95.3889 293.495 103.487 305.436 101.964 305.935C100.441 306.433 96.9028 306.171 96.4012 305.234C95.8996 304.296 89.3152 296.333 89.3152 296.333" stroke="#263238" stroke-linecap="round" stroke-linejoin="round"/>
<path d="M85.7768 296.535C85.7768 296.535 89.069 293.723 90.8382 294.661C92.6074 295.598 99.9579 304.499 98.4258 305.436C96.8937 306.373 95.8905 305.436 94.3766 303.561C93.2932 302.3 92.0148 301.193 90.5829 300.276L87.546 301.214" fill="white"/>
<path d="M85.7768 296.535C85.7768 296.535 89.069 293.723 90.8382 294.661C92.6074 295.598 99.9579 304.499 98.4258 305.436C96.8937 306.373 95.8905 305.436 94.3766 303.561C93.2932 302.3 92.0148 301.193 90.5829 300.276L87.546 301.214" stroke="#263238" stroke-linecap="round" stroke-linejoin="round"/>
<path d="M172.751 264.555L156.737 295.852L167.042 300.893L197.329 271.176L188.638 262.267" fill="#1A3479"/>
<path d="M172.751 264.555L156.737 295.852L167.042 300.893L197.329 271.176L188.638 262.267" stroke="#263238" stroke-linecap="round" stroke-linejoin="round"/>
<path d="M164.753 292.786C163.641 292.228 145.018 288.099 144.772 290.21C144.526 292.321 138.954 294.661 136.418 294.661C133.883 294.661 131.366 292.786 130.855 295.598C130.345 298.41 133.135 298.638 135.415 298.874C137.695 299.111 145.529 296.763 145.529 296.763C145.529 296.763 152.825 302.388 155.898 303.798C158.972 305.208 164.498 304.727 166.523 303.325C168.547 301.923 171.329 296.062 164.753 292.786Z" fill="white" stroke="#263238" stroke-linecap="round" stroke-linejoin="round"/>
<path d="M147.554 289.974C147.554 289.974 140.468 288.099 138.954 288.809C137.44 289.518 136.674 303.562 136.674 303.562C136.674 303.562 137.431 304.964 138.954 303.562C140.477 302.16 145.529 291.579 145.529 291.579" fill="white"/>
<path d="M147.554 289.974C147.554 289.974 140.468 288.099 138.954 288.809C137.44 289.518 136.674 303.562 136.674 303.562C136.674 303.562 137.431 304.964 138.954 303.562C140.477 302.16 145.529 291.579 145.529 291.579" stroke="#263238" stroke-linecap="round" stroke-linejoin="round"/>
<path d="M151.092 290.447C151.092 290.447 143.796 288.809 142.237 291.385C140.677 293.96 136.929 305.437 139.966 305.935C143.003 306.433 144.006 302.658 144.006 302.658L148.812 294.458L152.104 293.994" fill="white"/>
<path d="M151.092 290.447C151.092 290.447 143.796 288.809 142.237 291.385C140.677 293.96 136.929 305.437 139.966 305.935C143.003 306.433 144.006 302.658 144.006 302.658L148.812 294.458L152.104 293.994" stroke="#263238" stroke-linecap="round" stroke-linejoin="round"/>
<path d="M153.646 292.55C153.646 292.55 150.107 291.148 148.338 292.322C146.569 293.495 138.443 305.436 139.966 305.935C141.489 306.433 145.018 306.171 145.529 305.234C146.04 304.296 152.606 296.333 152.606 296.333" fill="white"/>
<path d="M153.646 292.55C153.646 292.55 150.107 291.148 148.338 292.322C146.569 293.495 138.443 305.436 139.966 305.935C141.489 306.433 145.018 306.171 145.529 305.234C146.04 304.296 152.606 296.333 152.606 296.333" stroke="#263238" stroke-linecap="round" stroke-linejoin="round"/>
<path d="M156.154 296.535C156.154 296.535 152.861 293.723 151.092 294.661C149.323 295.598 141.972 304.499 143.504 305.436C145.037 306.373 146.031 305.436 147.554 303.561C148.637 302.3 149.915 301.193 151.347 300.276L154.384 301.214" fill="white"/>
<path d="M156.154 296.535C156.154 296.535 152.861 293.723 151.092 294.661C149.323 295.598 141.972 304.499 143.504 305.436C145.037 306.373 146.031 305.436 147.554 303.561C148.637 302.3 149.915 301.193 151.347 300.276L154.384 301.214" stroke="#263238" stroke-linecap="round" stroke-linejoin="round"/>
<path d="M212.614 91.6138H153.336C150.587 91.6138 147.951 92.6242 146.007 94.4231C144.062 96.2219 142.969 98.662 142.966 101.207V117.252C142.959 118.516 143.222 119.769 143.738 120.938C144.255 122.108 145.016 123.172 145.978 124.068C146.939 124.965 148.083 125.677 149.342 126.164C150.602 126.651 151.953 126.902 153.317 126.905H160.613L150.663 138.955L173.034 126.905H212.614C213.975 126.901 215.323 126.65 216.58 126.164C217.836 125.678 218.977 124.968 219.938 124.074C220.898 123.18 221.659 122.12 222.177 120.954C222.694 119.788 222.959 118.538 222.955 117.278V101.232C222.96 98.6873 221.874 96.2446 219.934 94.441C217.995 92.6374 215.362 91.6205 212.614 91.6138Z" fill="white" stroke="#263238" stroke-miterlimit="10"/>
<path d="M174.831 110.361C174.832 110.804 174.692 111.238 174.428 111.607C174.163 111.976 173.787 112.264 173.345 112.435C172.904 112.605 172.418 112.651 171.948 112.566C171.479 112.48 171.047 112.268 170.708 111.955C170.369 111.642 170.138 111.244 170.044 110.809C169.95 110.375 169.998 109.925 170.18 109.515C170.363 109.106 170.673 108.756 171.07 108.51C171.468 108.263 171.936 108.132 172.414 108.132C173.053 108.132 173.667 108.366 174.12 108.784C174.573 109.202 174.828 109.769 174.831 110.361Z" fill="#263238"/>
<path d="M185.373 110.361C185.375 110.805 185.234 111.238 184.97 111.608C184.705 111.977 184.327 112.265 183.885 112.436C183.443 112.606 182.957 112.651 182.487 112.565C182.017 112.479 181.586 112.266 181.247 111.952C180.909 111.639 180.679 111.239 180.586 110.804C180.493 110.369 180.541 109.919 180.725 109.509C180.909 109.1 181.221 108.751 181.619 108.505C182.018 108.26 182.487 108.13 182.965 108.132C183.604 108.132 184.216 108.367 184.668 108.785C185.119 109.203 185.373 109.77 185.373 110.361Z" fill="#263238"/>
<path d="M195.915 110.361C195.915 110.802 195.774 111.233 195.51 111.6C195.245 111.966 194.869 112.252 194.429 112.421C193.989 112.59 193.505 112.634 193.038 112.548C192.571 112.462 192.142 112.249 191.805 111.938C191.469 111.626 191.239 111.229 191.147 110.796C191.054 110.364 191.101 109.915 191.284 109.508C191.466 109.101 191.774 108.753 192.17 108.508C192.566 108.263 193.032 108.132 193.508 108.132C194.146 108.132 194.759 108.367 195.21 108.785C195.662 109.203 195.915 109.77 195.915 110.361Z" fill="#263238"/>
<path d="M333.714 305.707H223.238V309.836H333.714V305.707Z" fill="white" stroke="#263238" stroke-linecap="round" stroke-linejoin="round"/>
<path d="M350.686 305.707H254.391V309.836H350.686V305.707Z" fill="white" stroke="#263238" stroke-linecap="round" stroke-linejoin="round"/>
<path d="M352.555 298.368H260.428L270.36 233.233H362.487L352.555 298.368Z" fill="white" stroke="#263238" stroke-linecap="round" stroke-linejoin="round"/>
<path d="M356.368 298.368H264.24L274.172 233.233H366.299L356.368 298.368Z" fill="#263238" stroke="#263238" stroke-linecap="round" stroke-linejoin="round"/>
<path d="M328.133 268.093L337.38 309.827H313.605L304.367 268.093H328.133ZM312.009 280.482C312.054 280.651 312.16 280.802 312.309 280.909C312.458 281.017 312.641 281.074 312.83 281.073L326.3 280.955C326.426 280.953 326.55 280.925 326.663 280.873C326.776 280.82 326.875 280.745 326.952 280.653C327.029 280.56 327.083 280.453 327.109 280.338C327.135 280.224 327.133 280.105 327.102 279.992L325.889 275.314C325.845 275.143 325.739 274.991 325.591 274.883C325.442 274.774 325.258 274.715 325.069 274.714L311.599 274.832C311.472 274.834 311.348 274.862 311.235 274.915C311.122 274.967 311.023 275.042 310.945 275.134C310.867 275.226 310.813 275.334 310.785 275.448C310.758 275.562 310.759 275.681 310.787 275.795L312.009 280.482Z" fill="white" stroke="#263238" stroke-linecap="round" stroke-linejoin="round"/>
<path d="M170.307 305.707H59.8312V309.836H170.307V305.707Z" fill="white" stroke="#263238" stroke-linecap="round" stroke-linejoin="round"/>
<path d="M187.279 305.707H90.9841V309.836H187.279V305.707Z" fill="white" stroke="#263238" stroke-linecap="round" stroke-linejoin="round"/>
<path d="M189.149 298.368H97.0214L106.953 233.233H199.08L189.149 298.368Z" fill="white" stroke="#263238" stroke-linecap="round" stroke-linejoin="round"/>
<path d="M192.961 298.368H100.833L110.765 233.233H202.892L192.961 298.368Z" fill="#263238" stroke="#263238" stroke-linecap="round" stroke-linejoin="round"/>
<path d="M164.735 268.093L173.973 309.827H150.198L140.96 268.093H164.735ZM148.602 280.482C148.649 280.651 148.755 280.8 148.903 280.907C149.052 281.015 149.235 281.073 149.423 281.073L162.893 280.955C163.019 280.953 163.144 280.925 163.257 280.872C163.37 280.82 163.469 280.745 163.547 280.653C163.625 280.56 163.679 280.453 163.707 280.339C163.734 280.225 163.733 280.106 163.705 279.992L162.483 275.314C162.439 275.142 162.334 274.99 162.185 274.881C162.036 274.772 161.852 274.713 161.662 274.714L148.192 274.832C148.066 274.834 147.942 274.862 147.829 274.914C147.716 274.967 147.617 275.042 147.54 275.134C147.463 275.227 147.409 275.334 147.383 275.449C147.357 275.563 147.359 275.681 147.389 275.795L148.602 280.482Z" fill="white" stroke="#263238" stroke-linecap="round" stroke-linejoin="round"/>
<path d="M396.002 309.828H3.01546V313.915H396.002V309.828Z" fill="#263238" stroke="#263238" stroke-linecap="round" stroke-linejoin="round"/>
</svg>
