<svg width="86" height="83" viewBox="0 0 86 83" fill="none" xmlns="http://www.w3.org/2000/svg">
<ellipse cx="43" cy="41.5" rx="43" ry="41.5" fill="white"/>
<path d="M50.0875 42C50.0875 38.0625 46.9375 34.9125 43 34.9125C39.0625 34.9125 35.9125 38.0625 35.9125 42C35.9125 45.9375 39.0625 49.0875 43 49.0875C46.9375 49.0875 50.0875 45.9375 50.0875 42ZM53.7625 42C53.7625 48.0375 49.0375 52.7625 43 52.7625C36.9625 52.7625 32.2375 48.0375 32.2375 42C32.2375 35.9625 36.9625 31.2375 43 31.2375C49.0375 31.2375 53.7625 35.9625 53.7625 42ZM56.65 30.7125C56.65 32.2875 55.6 33.3375 54.025 33.3375C52.45 33.3375 51.4 32.2875 51.4 30.7125C51.4 29.1375 52.45 28.0875 54.025 28.0875C55.6 28.0875 56.65 29.4 56.65 30.7125ZM43 24.675C39.85 24.675 33.2875 24.4125 30.6625 25.4625C28.825 26.25 27.25 27.825 26.725 29.6625C25.675 32.2875 25.9375 38.85 25.9375 42C25.9375 45.15 25.675 51.7125 26.725 54.3375C27.25 56.175 28.825 57.75 30.6625 58.275C33.2875 59.325 40.1125 59.0625 43 59.0625C45.8875 59.0625 52.7125 59.325 55.3375 58.275C57.175 57.4875 58.4875 56.175 59.275 54.3375C60.325 51.45 60.0625 44.8875 60.0625 42C60.0625 39.1125 60.325 32.2875 59.275 29.6625C58.75 27.825 57.175 26.25 55.3375 25.725C52.7125 24.4125 46.15 24.675 43 24.675ZM64 42V50.6625C64 53.8125 62.95 56.9625 60.5875 59.5875C58.225 61.95 55.075 63 51.6625 63H34.3375C31.1875 63 28.0375 61.95 25.4125 59.5875C23.3125 57.225 22 54.075 22 50.6625V33.3375C22 29.925 23.3125 26.775 25.4125 24.4125C28.0375 22.3125 31.1875 21 34.3375 21H51.6625C54.8125 21 57.9625 22.05 60.5875 24.4125C62.6875 26.775 64 29.925 64 33.3375V42Z" fill="#008CE8"/>
</svg>
