<svg width="86" height="83" viewBox="0 0 86 83" fill="none" xmlns="http://www.w3.org/2000/svg">
<ellipse cx="43" cy="41.5" rx="43" ry="41.5" fill="white"/>
<path d="M34.145 27.7498C34.1446 28.6781 33.7754 29.5681 33.1187 30.2242C32.462 30.8802 31.5715 31.2485 30.6433 31.248C29.715 31.2476 28.825 30.8784 28.1689 30.2217C27.5129 29.565 27.1446 28.6746 27.145 27.7463C27.1455 26.818 27.5147 25.928 28.1714 25.2719C28.8281 24.6159 29.7185 24.2476 30.6468 24.248C31.575 24.2485 32.4651 24.6177 33.1211 25.2744C33.7772 25.9311 34.1455 26.8215 34.145 27.7498ZM34.25 33.8398H27.25V55.7498H34.25V33.8398ZM45.31 33.8398H38.345V55.7498H45.24V44.2523C45.24 37.8473 53.5875 37.2523 53.5875 44.2523V55.7498H60.5V41.8723C60.5 31.0748 48.145 31.4773 45.24 36.7798L45.31 33.8398Z" fill="#008CE8"/>
</svg>
