<svg width="86" height="83" viewBox="0 0 86 83" fill="none" xmlns="http://www.w3.org/2000/svg">
<ellipse cx="43" cy="41.5" rx="43" ry="41.5" fill="white"/>
<path d="M57.8794 26.1111C55.9444 24.1664 53.6397 22.6244 51.0995 21.5752C48.5594 20.526 45.8347 19.9906 43.0844 20.0001C31.5608 20.0001 22.1688 29.3451 22.1688 40.8111C22.1688 44.486 23.1397 48.056 24.9548 51.206L22 62L33.0804 59.102C36.1407 60.761 39.5809 61.643 43.0844 61.643C54.608 61.643 64 52.298 64 40.8321C64 35.2671 61.8261 30.0381 57.8794 26.1111ZM43.0844 58.115C39.9608 58.115 36.9005 57.275 34.2201 55.7L33.5869 55.322L27.002 57.044L28.7538 50.66L28.3317 50.009C26.5962 47.2517 25.6748 44.0645 25.6724 40.8111C25.6724 31.2771 33.4814 23.5071 43.0633 23.5071C47.7065 23.5071 52.0754 25.3131 55.3467 28.5891C56.9665 30.1934 58.2502 32.1017 59.1233 34.2033C59.9965 36.3049 60.4417 38.558 60.4332 40.8321C60.4754 50.366 52.6663 58.115 43.0844 58.115ZM52.6241 45.179C52.0965 44.927 49.5216 43.6671 49.0573 43.4781C48.5719 43.3101 48.2342 43.2261 47.8754 43.7301C47.5166 44.2551 46.5246 45.431 46.2291 45.767C45.9337 46.124 45.6171 46.166 45.0894 45.893C44.5618 45.641 42.8734 45.074 40.8894 43.3101C39.3276 41.9241 38.2935 40.2231 37.9769 39.6981C37.6814 39.1731 37.9347 38.9001 38.209 38.6271C38.4412 38.3961 38.7367 38.0181 38.9899 37.7241C39.2432 37.4301 39.3487 37.1991 39.5176 36.8631C39.6864 36.5061 39.602 36.2121 39.4754 35.9601C39.3487 35.7081 38.2935 33.1461 37.8714 32.0961C37.4492 31.0881 37.006 31.2141 36.6894 31.1931H35.6764C35.3176 31.1931 34.7688 31.3191 34.2834 31.8441C33.8191 32.3691 32.4683 33.6291 32.4683 36.1911C32.4683 38.7531 34.3467 41.2311 34.6 41.5671C34.8533 41.9241 38.2935 47.174 43.5276 49.421C44.7729 49.967 45.7437 50.282 46.5035 50.513C47.7487 50.912 48.8884 50.849 49.796 50.723C50.809 50.576 52.8985 49.463 53.3206 48.245C53.7638 47.027 53.7638 45.998 53.6161 45.767C53.4683 45.536 53.1518 45.431 52.6241 45.179Z" fill="#008CE8"/>
</svg>
